<?xml version="1.0" encoding="UTF-8" standalone="no"?>
<svg
   xmlns:dc="http://purl.org/dc/elements/1.1/"
   xmlns:cc="http://creativecommons.org/ns#"
   xmlns:rdf="http://www.w3.org/1999/02/22-rdf-syntax-ns#"
   xmlns:svg="http://www.w3.org/2000/svg"
   xmlns="http://www.w3.org/2000/svg"
   xmlns:sodipodi="http://sodipodi.sourceforge.net/DTD/sodipodi-0.dtd"
   xmlns:inkscape="http://www.inkscape.org/namespaces/inkscape"
   version="1.1"
   width="488.54437"
   height="150.28073"
   id="svg16"
   viewBox="0 0 488.54437 150.28073"
   sodipodi:docname="gtel-logo.cdr"
   inkscape:version="0.92.2 2405546, 2018-03-11">
  <metadata
     id="metadata22">
    <rdf:RDF>
      <cc:Work
         rdf:about="">
        <dc:format>image/svg+xml</dc:format>
        <dc:type
           rdf:resource="http://purl.org/dc/dcmitype/StillImage" />
        <dc:title></dc:title>
      </cc:Work>
    </rdf:RDF>
  </metadata>
  <defs
     id="defs20" />
  <sodipodi:namedview
     pagecolor="#ffffff"
     bordercolor="#666666"
     borderopacity="1"
     objecttolerance="10"
     gridtolerance="10"
     guidetolerance="10"
     inkscape:pageopacity="0"
     inkscape:pageshadow="2"
     inkscape:window-width="1920"
     inkscape:window-height="1016"
     id="namedview18"
     showgrid="false"
     fit-margin-top="0"
     fit-margin-left="0"
     fit-margin-right="0"
     fit-margin-bottom="0"
     inkscape:zoom="0.39645504"
     inkscape:cx="249.31687"
     inkscape:cy="75.140422"
     inkscape:window-x="0"
     inkscape:window-y="27"
     inkscape:window-maximized="1"
     inkscape:current-layer="svg16" />
  <g
     id="Layer1000"
     transform="translate(-176.67272,-222.49748)">
    <g
       id="Layer1001">
      <g
         id="Layer1002">
        <path
           d="m 213.118,336.333 c -9.3268,-9.3268 -14.2291,-21.3883 -14.739,-34.0242 -0.5004,-12.4099 3.2354,-25.3732 11.1772,-36.8465 l 0.55,0.3345 c -5.845,10.9769 -8.0997,22.8779 -6.7925,34.186 1.3318,11.5166 6.3581,22.4194 15.0466,31.1079 8.6885,8.6885 19.5912,13.7147 31.1078,15.0465 11.3082,1.3072 23.2091,-0.9474 34.1861,-6.7925 l 0.3345,0.5501 c -11.4734,7.9418 -24.4367,11.6776 -36.8466,11.1772 -12.6359,-0.5099 -24.6974,-5.4123 -34.0241,-14.739 z m -15.5368,15.5368 c -12.8562,-12.8562 -19.7605,-29.3402 -20.777,-46.4686 -1.0263,-17.3028 3.9576,-35.2628 14.8828,-50.8064 l 0.6207,0.3777 c -8.0557,15.0106 -11.0214,31.6081 -8.9008,47.4649 2.0904,15.6295 9.1225,30.5432 21.093,42.5136 11.9705,11.9705 26.8842,19.0027 42.5136,21.093 15.8569,2.1206 32.4541,-0.8453 47.4649,-8.9008 l 0.3775,0.621 c -15.5436,10.9252 -33.5033,15.9089 -50.8062,14.8825 -17.1283,-1.0164 -33.6123,-7.9207 -46.4685,-20.7769 z m 8.1725,-8.1725 c -11.0625,-11.0626 -16.9539,-25.2959 -17.7316,-40.1271 -0.7725,-14.731 3.5015,-30.0517 12.7635,-43.4419 l 0.3853,0.2345 0.2305,0.1402 c -6.8031,12.8725 -9.3471,26.9874 -7.6361,40.4509 1.7187,13.5256 7.7318,26.3981 18.0327,36.699 10.3009,10.3009 23.1734,16.3141 36.6991,18.0328 13.4634,1.711 27.5784,-0.833 40.4509,-7.6361 l 0.1402,0.2304 0.2345,0.3853 c -13.3902,9.262 -28.711,13.5361 -43.4419,12.7636 -14.8312,-0.7777 -29.0646,-6.6691 -40.1271,-17.7316 z"
           style="fill:#009a79;fill-rule:evenodd"
           id="path2"
           inkscape:connector-curvature="0" />
        <path
           d="m 256.4842,244.2036 c 12.6362,0.5096 24.6976,5.412 34.0244,14.7388 9.3268,9.3267 14.2291,21.3882 14.7388,34.0243 0.5006,12.4092 -3.2359,25.3732 -11.1774,36.8463 l -0.5501,-0.3344 c 5.8451,-10.977 8.0997,-22.878 6.7925,-34.1856 -1.3316,-11.5155 -6.3573,-22.4177 -15.047,-31.1074 -8.6897,-8.6897 -19.592,-13.7155 -31.1074,-15.047 -11.3077,-1.3072 -23.2086,0.9474 -34.1856,6.7925 l -0.3345,-0.5501 c 11.4731,-7.9416 24.4371,-11.6781 36.8463,-11.1774 z m 3.0922,-21.5745 c 17.1288,1.0164 33.6128,7.9207 46.4688,20.7767 12.8559,12.856 19.7602,29.3399 20.7767,46.4688 1.0268,17.3023 -3.9573,35.2625 -14.8823,50.8059 l -0.6207,-0.3777 c 8.0555,-15.0108 11.0214,-31.6081 8.9005,-47.4647 -2.0903,-15.6294 -9.1227,-30.5429 -21.0932,-42.5134 -11.9705,-11.9704 -26.8839,-19.0028 -42.5134,-21.0932 -15.8566,-2.1208 -32.4538,0.8451 -47.4646,8.9006 l -0.3778,-0.6208 c 15.5434,-10.9249 33.5036,-15.9091 50.806,-14.8822 z m -1.8308,11.2176 c 14.8312,0.7777 29.0643,6.6688 40.1271,17.7316 11.0627,11.0628 16.9539,25.2959 17.7316,40.1271 0.7725,14.7309 -3.5011,30.0512 -12.7633,43.4416 l -0.3853,-0.2345 -0.2305,-0.1401 c 6.8034,-12.8728 9.3469,-26.9873 7.6361,-40.4505 -1.7185,-13.5263 -7.7316,-26.3984 -18.0327,-36.6995 -10.3012,-10.3011 -23.1732,-16.3143 -36.6995,-18.0328 -13.4633,-1.7107 -27.5778,0.8328 -40.4505,7.6362 l -0.1402,-0.2305 -0.2345,-0.3853 c 13.3905,-9.2622 28.7107,-13.5358 43.4417,-12.7633 z"
           style="fill:#0080b8;fill-rule:evenodd"
           id="path4"
           inkscape:connector-curvature="0" />
      </g>
      <path
         d="m 276.4202,273.0311 -14.8263,60.3021 0.5924,-46.0682 -46.0682,0.5924 z"
         style="fill:#009a79;fill-rule:evenodd"
         id="path7"
         inkscape:connector-curvature="0" />
    </g>
    <g
       id="Layer1003">
      <path
         d="m 542.3035,263.6637 h 46.0316 v -20.5832 c -50.9453,0 -101.891,0 -152.8364,0 v 20.5832 h 34.0926 v 66.7397 h 24.2009 v -66.7397 h 24.3104 v 66.7397 h 70.2325 v -20.5832 h -46.0316 v -12.7866 h 46.0316 v -20.5832 h -46.0316 z m 52.6811,66.7397 h 70.2325 V 309.8202 H 619.1855 V 243.0805 H 594.9846 Z M 391.1964,243.0805 h 37.6528 v 20.5832 h -37.0104 c -6.2451,0 -11.9261,2.9165 -16.0433,7.0336 -8.8969,8.896 -8.8982,23.1917 -10e-4,32.089 4.1175,4.1174 9.797,7.0339 16.0443,7.0339 h 29.3915 v -21.5024 l -25.7365,-0.0501 51.8309,-11.7264 -2.0441,11.0814 v 42.7807 h -17.5209 -6.5294 -30.0339 c -12.0058,0 -22.9215,-4.9121 -30.8349,-12.8255 -17.0995,-17.0979 -17.0995,-44.5737 -10e-4,-61.6722 7.9134,-7.9134 18.8291,-12.8252 30.8359,-12.8252 z"
         style="fill:#253f4d;fill-rule:evenodd"
         id="path10"
         inkscape:connector-curvature="0" />
      <path
         d="m 366.7402,346.4918 h 1.7676 l 1.7903,12.1243 c 0.1089,0.707 0.195,1.4914 0.2676,2.3432 0.0678,0.8566 0.1269,1.8042 0.1722,2.851 0.0543,-0.6119 0.1268,-1.2826 0.2174,-2.0124 0.0954,-0.7297 0.2223,-1.5999 0.381,-2.6107 l 2.0033,-12.6954 h 1.6587 l 2.0486,12.8268 c 0.0954,0.5939 0.1815,1.2466 0.2586,1.9625 0.0726,0.7118 0.1403,1.5367 0.2039,2.4749 0.1086,-0.9292 0.2085,-1.8993 0.3126,-2.9098 0.0999,-1.0063 0.1631,-1.5594 0.1814,-1.659 l 1.7631,-12.6954 h 1.7406 l -3.2136,19.3899 h -1.5546 l -2.0849,-12.8403 c -0.177,-1.0382 -0.2994,-1.8948 -0.3717,-2.5793 -0.0681,-0.6796 -0.1089,-1.3053 -0.1179,-1.8716 -0.0452,0.7159 -0.1088,1.4412 -0.1949,2.171 -0.0816,0.7297 -0.1812,1.464 -0.2991,2.1983 l -2.1758,12.9219 h -1.6089 z m 16.9151,19.3899 v -19.3899 h 1.7676 v 19.3899 z m 7.4242,-17.7582 v 7.0163 h 0.8387 c 0.9835,0 1.7043,-0.2766 2.153,-0.8294 0.4532,-0.5531 0.6797,-1.437 0.6797,-2.6515 0,-1.2511 -0.222,-2.153 -0.6662,-2.7061 -0.4442,-0.5528 -1.165,-0.8293 -2.1665,-0.8293 z m -1.7675,-1.6317 h 2.1392 c 1.8629,0 3.1818,0.3854 3.9568,1.1605 0.7751,0.775 1.165,2.0849 1.165,3.9295 0,1.5412 -0.2945,2.7058 -0.8794,3.4944 -0.5846,0.7888 -1.4865,1.2237 -2.7103,1.3146 l 4.2151,9.4909 h -1.8492 l -4.2697,-10.0077 v 10.0077 h -1.7675 z m 10.3837,0 h 6.0916 v 1.6317 h -4.324 v 6.989 h 4.2697 v 1.5774 h -4.2697 v 7.5601 h 4.4599 v 1.6317 h -6.2275 z m 9.3868,0 h 1.7676 v 17.7855 h 4.1608 v 1.6044 h -5.9284 z m 7.8094,0 h 6.0916 v 1.6317 h -4.3241 v 6.989 h 4.2698 v 1.5774 h -4.2698 v 7.5601 h 4.4599 v 1.6317 h -6.2274 z m 8.6252,16.3986 c 0.4715,0.5213 0.961,0.9154 1.473,1.1784 0.5123,0.2673 1.0516,0.3986 1.6092,0.3986 0.902,0 1.6407,-0.3263 2.2208,-0.9835 0.5801,-0.6527 0.8701,-1.4955 0.8701,-2.5336 0,-0.4397 -0.0587,-0.8477 -0.1811,-1.2193 -0.1179,-0.3716 -0.2991,-0.7159 -0.5483,-1.0333 -0.3809,-0.4895 -1.0561,-1.0831 -2.0216,-1.7949 -0.3897,-0.281 -0.6752,-0.4985 -0.8612,-0.6481 -0.9835,-0.7976 -1.695,-1.582 -2.1257,-2.3567 -0.4352,-0.775 -0.6527,-1.641 -0.6527,-2.5927 0,-1.4551 0.4308,-2.656 1.2874,-3.6171 0.8611,-0.9607 1.9352,-1.4412 3.2316,-1.4412 0.512,0 1.0198,0.0906 1.5183,0.2676 0.503,0.1766 0.9925,0.4394 1.4686,0.793 v 2.2844 c -0.39,-0.5483 -0.8342,-0.9655 -1.3282,-1.2556 -0.494,-0.2855 -1.0243,-0.4304 -1.5816,-0.4304 -0.8387,0 -1.5231,0.299 -2.0444,0.8974 -0.521,0.5936 -0.7841,1.3777 -0.7841,2.3432 0,0.8114 0.177,1.5138 0.5303,2.1032 0.3536,0.5891 1.192,1.3732 2.5112,2.3522 1.3641,1.0018 2.266,1.8719 2.6968,2.6107 0.4349,0.7433 0.6526,1.6227 0.6526,2.638 0,1.5411 -0.4442,2.8054 -1.3281,3.7937 -0.8837,0.988 -2.0079,1.482 -3.372,1.482 -0.5939,0 -1.156,-0.077 -1.6863,-0.2267 -0.5303,-0.1539 -1.0513,-0.3851 -1.5546,-0.698 z m 9.9579,0 c 0.4715,0.5213 0.961,0.9154 1.473,1.1784 0.5123,0.2673 1.0516,0.3986 1.6092,0.3986 0.9019,0 1.6407,-0.3263 2.2208,-0.9835 0.5801,-0.6527 0.8701,-1.4955 0.8701,-2.5336 0,-0.4397 -0.0588,-0.8477 -0.1811,-1.2193 -0.1179,-0.3716 -0.2991,-0.7159 -0.5483,-1.0333 -0.381,-0.4895 -1.0561,-1.0831 -2.0217,-1.7949 -0.3896,-0.281 -0.6751,-0.4985 -0.8611,-0.6481 -0.9835,-0.7976 -1.695,-1.582 -2.1257,-2.3567 -0.4352,-0.775 -0.6527,-1.641 -0.6527,-2.5927 0,-1.4551 0.4307,-2.656 1.2874,-3.6171 0.8611,-0.9607 1.9352,-1.4412 3.2316,-1.4412 0.512,0 1.0198,0.0906 1.5183,0.2676 0.503,0.1766 0.9925,0.4394 1.4685,0.793 v 2.2844 c -0.3899,-0.5483 -0.8341,-0.9655 -1.3281,-1.2556 -0.494,-0.2855 -1.0243,-0.4304 -1.5816,-0.4304 -0.8387,0 -1.5232,0.299 -2.0445,0.8974 -0.521,0.5936 -0.784,1.3777 -0.784,2.3432 0,0.8114 0.177,1.5138 0.5303,2.1032 0.3536,0.5891 1.192,1.3732 2.5111,2.3522 1.3642,1.0018 2.2661,1.8719 2.6968,2.6107 0.4349,0.7433 0.6527,1.6227 0.6527,2.638 0,1.5411 -0.4442,2.8054 -1.3282,3.7937 -0.8836,0.988 -2.0078,1.482 -3.3719,1.482 -0.5939,0 -1.156,-0.077 -1.6863,-0.2267 -0.5303,-0.1539 -1.0513,-0.3851 -1.5546,-0.698 z m 17.2417,-14.8212 h -3.0186 v -1.5774 h 7.8048 v 1.5774 h -3.0186 v 17.8125 h -1.7676 z m 6.9935,-1.5774 h 6.0916 v 1.6317 h -4.324 v 6.989 h 4.2697 v 1.5774 h -4.2697 v 7.5601 h 4.4599 v 1.6317 h -6.2275 z m 9.3868,0 h 1.7676 v 17.7855 h 4.1608 v 1.6044 h -5.9284 z m 7.8093,0 h 6.0916 v 1.6317 h -4.324 v 6.989 h 4.2697 v 1.5774 h -4.2697 v 7.5601 h 4.4599 v 1.6317 h -6.2275 z m 16.1311,18.8731 c -0.3717,0.2133 -0.7706,0.3764 -1.201,0.485 -0.4307,0.1134 -0.8704,0.1677 -1.3237,0.1677 -1.754,0 -3.0549,-0.7931 -3.9022,-2.384 -0.8477,-1.5909 -1.2691,-4.025 -1.2691,-7.3019 0,-3.2679 0.4532,-5.7427 1.3551,-7.4242 0.9065,-1.6815 2.2391,-2.5246 4.0022,-2.5246 0.4442,0 0.8612,0.0456 1.2556,0.1317 0.3941,0.0905 0.775,0.2264 1.1374,0.4124 v 1.9034 c -0.417,-0.2762 -0.7976,-0.4757 -1.1512,-0.6026 -0.3489,-0.1223 -0.698,-0.1859 -1.0423,-0.1859 -1.2736,0 -2.2118,0.6527 -2.8102,1.9535 -0.5984,1.3009 -0.8974,3.336 -0.8974,6.0961 0,3.0051 0.2765,5.1309 0.8293,6.3726 0.5531,1.2466 1.473,1.8675 2.7604,1.8675 0.2627,0 0.5213,-0.0273 0.7612,-0.0816 0.2448,-0.0543 0.4806,-0.1314 0.7118,-0.2403 0.1359,-0.0632 0.2673,-0.1358 0.399,-0.2219 0.1358,-0.0816 0.2627,-0.1725 0.3851,-0.2721 z m 6.0642,-17.4862 c -1.0288,0 -1.781,0.6662 -2.2615,1.9988 -0.485,1.3282 -0.7253,3.4311 -0.7253,6.2956 0,2.8693 0.2403,4.9722 0.7253,6.3093 0.4805,1.3417 1.2327,2.0123 2.2615,2.0123 1.0337,0 1.7904,-0.6616 2.2709,-1.9853 0.4851,-1.3233 0.7253,-3.4356 0.7253,-6.3363 0,-2.8918 -0.2402,-4.9992 -0.7253,-6.318 -0.4805,-1.3192 -1.2372,-1.9764 -2.2709,-1.9764 z m -4.8087,8.3262 c 0,-3.3993 0.3897,-5.9059 1.1692,-7.5283 0.7796,-1.6182 1.9899,-2.4296 3.6395,-2.4296 1.6456,0 2.86,0.8114 3.6444,2.4296 0.784,1.6224 1.1737,4.129 1.1737,7.5283 0,3.3992 -0.3897,5.9059 -1.1737,7.5103 -0.7844,1.6089 -1.9988,2.4112 -3.6444,2.4112 -1.6496,0 -2.8599,-0.8023 -3.6395,-2.4112 -0.7795,-1.6044 -1.1692,-4.1111 -1.1692,-7.5103 z m 13.7696,-9.7131 h 1.5681 l 1.9671,12.5641 c 0.0362,0.2309 0.1541,1.2237 0.3581,2.9868 0.0726,0.707 0.1359,1.2736 0.186,1.686 0.0632,-0.707 0.1448,-1.4502 0.2537,-2.2298 0.1041,-0.7795 0.231,-1.5954 0.3716,-2.443 l 2.0984,-12.5641 h 1.5139 l 2.3659,19.3899 h -1.6224 l -1.3146,-12.6955 c 0,-0.0543 -0.009,-0.1497 -0.027,-0.281 -0.1314,-1.4413 -0.2358,-2.7511 -0.3174,-3.9296 -0.1043,1.1965 -0.2039,2.1665 -0.29,2.9098 -0.0906,0.7432 -0.186,1.3959 -0.281,1.9625 l -2.0217,12.0338 h -1.5273 l -1.9262,-12.5095 c -0.009,-0.0636 -0.0228,-0.1632 -0.0498,-0.3084 -0.2493,-1.5636 -0.4218,-2.928 -0.5213,-4.0882 -0.0498,0.5939 -0.1134,1.3507 -0.186,2.2709 -0.1041,1.3551 -0.1722,2.1212 -0.1995,2.2979 l -1.4049,12.3373 h -1.6089 z m 20.2193,1.6317 v 7.0163 h 0.8386 c 0.9836,0 1.7043,-0.2766 2.1531,-0.8294 0.4532,-0.5531 0.6796,-1.437 0.6796,-2.6515 0,-1.2511 -0.2219,-2.153 -0.6662,-2.7061 -0.4442,-0.5528 -1.1649,-0.8293 -2.1665,-0.8293 z m -1.7676,-1.6317 h 2.1392 c 1.863,0 3.1818,0.3854 3.9569,1.1605 0.7751,0.775 1.165,2.0849 1.165,3.9295 0,1.5412 -0.2946,2.7058 -0.8795,3.4944 -0.5845,0.7888 -1.4865,1.2237 -2.7103,1.3146 l 4.2152,9.4909 h -1.8492 l -4.2697,-10.0077 v 10.0077 h -1.7676 z m 10.3838,0 h 6.0916 v 1.6317 h -4.324 v 6.989 h 4.2697 v 1.5774 h -4.2697 v 7.5601 h 4.4598 v 1.6317 h -6.2274 z m 8.6252,16.3986 c 0.4715,0.5213 0.961,0.9154 1.473,1.1784 0.5124,0.2673 1.0517,0.3986 1.6093,0.3986 0.9019,0 1.6407,-0.3263 2.2207,-0.9835 0.5801,-0.6527 0.8702,-1.4955 0.8702,-2.5336 0,-0.4397 -0.0588,-0.8477 -0.1812,-1.2193 -0.1179,-0.3716 -0.299,-0.7159 -0.5483,-1.0333 -0.3809,-0.4895 -1.0561,-1.0831 -2.0216,-1.7949 -0.3896,-0.281 -0.6752,-0.4985 -0.8612,-0.6481 -0.9835,-0.7976 -1.6949,-1.582 -2.1257,-2.3567 -0.4352,-0.775 -0.6526,-1.641 -0.6526,-2.5927 0,-1.4551 0.4307,-2.656 1.2873,-3.6171 0.8612,-0.9607 1.9353,-1.4412 3.2316,-1.4412 0.512,0 1.0199,0.0906 1.5184,0.2676 0.503,0.1766 0.9925,0.4394 1.4685,0.793 v 2.2844 c -0.39,-0.5483 -0.8342,-0.9655 -1.3282,-1.2556 -0.494,-0.2855 -1.0243,-0.4304 -1.5816,-0.4304 -0.8386,0 -1.5231,0.299 -2.0444,0.8974 -0.521,0.5936 -0.7841,1.3777 -0.7841,2.3432 0,0.8114 0.177,1.5138 0.5303,2.1032 0.3537,0.5891 1.192,1.3732 2.5112,2.3522 1.3641,1.0018 2.2661,1.8719 2.6968,2.6107 0.4349,0.7433 0.6527,1.6227 0.6527,2.638 0,1.5411 -0.4443,2.8054 -1.3282,3.7937 -0.8836,0.988 -2.0078,1.482 -3.372,1.482 -0.5939,0 -1.156,-0.077 -1.6863,-0.2267 -0.5303,-0.1539 -1.0513,-0.3851 -1.5546,-0.698 z m 10.7195,-16.3986 h 6.0915 v 1.6317 h -4.324 v 6.989 h 4.2697 v 1.5774 h -4.2697 v 7.5601 h 4.4599 v 1.6317 h -6.2274 z m 12.1831,4.8906 -1.5954,9.0331 h 3.83 l -1.5681,-9.0466 c -0.0636,-0.3537 -0.1224,-0.7799 -0.177,-1.2694 -0.0498,-0.494 -0.0951,-1.0288 -0.1314,-1.6134 -0.0452,0.5576 -0.095,1.0741 -0.1541,1.5546 -0.0543,0.476 -0.1224,0.9247 -0.204,1.3417 z m -0.5165,-4.8906 h 1.686 l 3.9479,19.3899 h -1.7949 l -0.7571,-3.9161 h -4.4419 l -0.6751,3.9161 h -1.8222 z m 9.4456,1.6317 v 7.0163 h 0.8386 c 0.9835,0 1.7043,-0.2766 2.153,-0.8294 0.4532,-0.5531 0.6797,-1.437 0.6797,-2.6515 0,-1.2511 -0.222,-2.153 -0.6662,-2.7061 -0.4442,-0.5528 -1.165,-0.8293 -2.1665,-0.8293 z m -1.7676,-1.6317 h 2.1392 c 1.863,0 3.1818,0.3854 3.9569,1.1605 0.775,0.775 1.165,2.0849 1.165,3.9295 0,1.5412 -0.2946,2.7058 -0.8795,3.4944 -0.5846,0.7888 -1.4865,1.2237 -2.7103,1.3146 l 4.2151,9.4909 h -1.8491 l -4.2697,-10.0077 v 10.0077 h -1.7676 z m 17.128,18.8731 c -0.3716,0.2133 -0.7705,0.3764 -1.2009,0.485 -0.4308,0.1134 -0.8705,0.1677 -1.3237,0.1677 -1.7541,0 -3.0549,-0.7931 -3.9023,-2.384 -0.8476,-1.5909 -1.269,-4.025 -1.269,-7.3019 0,-3.2679 0.4532,-5.7427 1.3551,-7.4242 0.9064,-1.6815 2.2391,-2.5246 4.0022,-2.5246 0.4442,0 0.8611,0.0456 1.2556,0.1317 0.3941,0.0905 0.775,0.2264 1.1373,0.4124 v 1.9034 c -0.4169,-0.2762 -0.7975,-0.4757 -1.1512,-0.6026 -0.3488,-0.1223 -0.6979,-0.1859 -1.0423,-0.1859 -1.2735,0 -2.2117,0.6527 -2.8101,1.9535 -0.5984,1.3009 -0.8975,3.336 -0.8975,6.0961 0,3.0051 0.2766,5.1309 0.8294,6.3726 0.5531,1.2466 1.473,1.8675 2.7604,1.8675 0.2627,0 0.5213,-0.0273 0.7612,-0.0816 0.2448,-0.0543 0.4805,-0.1314 0.7118,-0.2403 0.1359,-0.0632 0.2672,-0.1358 0.3989,-0.2219 0.1359,-0.0816 0.2628,-0.1725 0.3851,-0.2721 z m 2.2073,-18.8731 h 1.7676 v 7.8048 h 4.623 v -7.8048 h 1.7679 v 19.3899 h -1.7679 v -10.035 h -4.623 v 10.035 h -1.7676 z m 24.983,3.3767 -1.6362,0.6752 c -0.1994,-0.8566 -0.4985,-1.5045 -0.8884,-1.9487 -0.3896,-0.4397 -0.8611,-0.662 -1.4184,-0.662 -0.9566,0 -1.668,0.6755 -2.1305,2.0306 -0.4668,1.3552 -0.698,3.4221 -0.698,6.2095 0,2.9643 0.2178,5.0945 0.6572,6.3864 0.4397,1.2916 1.1515,1.9352 2.144,1.9352 0.7615,0 1.3233,-0.3398 1.686,-1.0153 0.3626,-0.6751 0.5438,-1.7357 0.5438,-3.1773 v -2.9322 h -2.692 v -1.6317 h 4.4325 v 4.351 c 0,2.0216 -0.3398,3.5354 -1.0153,4.5459 -0.6796,1.0108 -1.6905,1.5187 -3.0366,1.5187 -1.5774,0 -2.7286,-0.7889 -3.4539,-2.3705 -0.7249,-1.5819 -1.0876,-4.1066 -1.0876,-7.5784 0,-3.3903 0.3852,-5.8966 1.1602,-7.5193 0.7751,-1.6272 1.976,-2.4386 3.5942,-2.4386 0.902,0 1.686,0.3129 2.3432,0.9337 0.662,0.6254 1.1605,1.5184 1.4958,2.6878 z m 4.5097,-1.745 v 7.0163 h 0.8387 c 0.9835,0 1.7043,-0.2766 2.153,-0.8294 0.4532,-0.5531 0.6796,-1.437 0.6796,-2.6515 0,-1.2511 -0.2219,-2.153 -0.6661,-2.7061 -0.4443,-0.5528 -1.165,-0.8293 -2.1665,-0.8293 z m -1.7676,-1.6317 h 2.1392 c 1.863,0 3.1818,0.3854 3.9569,1.1605 0.7751,0.775 1.165,2.0849 1.165,3.9295 0,1.5412 -0.2945,2.7058 -0.8794,3.4944 -0.5846,0.7888 -1.4866,1.2237 -2.7103,1.3146 l 4.2151,9.4909 h -1.8492 l -4.2697,-10.0077 v 10.0077 h -1.7676 z m 14.2408,1.3869 c -1.0288,0 -1.7811,0.6662 -2.2616,1.9988 -0.485,1.3282 -0.7252,3.4311 -0.7252,6.2956 0,2.8693 0.2402,4.9722 0.7252,6.3093 0.4805,1.3417 1.2328,2.0123 2.2616,2.0123 1.0336,0 1.7904,-0.6616 2.2709,-1.9853 0.485,-1.3233 0.7253,-3.4356 0.7253,-6.3363 0,-2.8918 -0.2403,-4.9992 -0.7253,-6.318 -0.4805,-1.3192 -1.2373,-1.9764 -2.2709,-1.9764 z m -4.8087,8.3262 c 0,-3.3993 0.3896,-5.9059 1.1692,-7.5283 0.7795,-1.6182 1.9898,-2.4296 3.6395,-2.4296 1.6455,0 2.86,0.8114 3.6443,2.4296 0.7841,1.6224 1.1737,4.129 1.1737,7.5283 0,3.3992 -0.3896,5.9059 -1.1737,7.5103 -0.7843,1.6089 -1.9988,2.4112 -3.6443,2.4112 -1.6497,0 -2.86,-0.8023 -3.6395,-2.4112 -0.7796,-1.6044 -1.1692,-4.1111 -1.1692,-7.5103 z m 12.5683,-9.7131 h 1.7679 v 13.8604 c 0,1.6224 0.1721,2.7238 0.5165,3.3132 0.3491,0.5891 0.952,0.8836 1.8221,0.8836 0.8702,0 1.4731,-0.2945 1.8219,-0.8836 0.3446,-0.5894 0.5168,-1.6908 0.5168,-3.3132 v -13.8604 h 1.7676 v 13.8604 c 0,2.1482 -0.3126,3.644 -0.9335,4.4962 -0.6257,0.8521 -1.6818,1.278 -3.1638,1.278 -1.4958,0 -2.5564,-0.4259 -3.1818,-1.278 -0.6209,-0.8522 -0.9337,-2.348 -0.9337,-4.4962 z m 13.9192,1.5774 v 6.9347 h 0.97 c 0.997,0 1.7088,-0.2766 2.1392,-0.8252 0.4308,-0.5483 0.6437,-1.4502 0.6437,-2.7103 0,-1.1784 -0.2357,-2.0396 -0.7069,-2.5834 -0.4671,-0.5441 -1.2058,-0.8158 -2.2073,-0.8158 z m -1.7676,-1.5774 h 2.4749 c 1.6815,0 2.9053,0.4124 3.671,1.242 0.7616,0.8249 1.1422,2.1527 1.1422,3.9749 0,1.6815 -0.3671,2.9143 -1.1059,3.6983 -0.7343,0.7844 -1.8899,1.174 -3.4674,1.174 h -0.9472 v 9.3007 h -1.7676 z"
         style="fill:#253f4d;fill-rule:evenodd"
         id="path12"
         inkscape:connector-curvature="0" />
    </g>
  </g>
</svg>
